<svg id="Logo" xmlns="http://www.w3.org/2000/svg" width="196" height="109.76" viewBox="0 0 196 109.76">
  <title>DHL_GG_KNV_rgb</title>
  <rect x="0.868" y="0.7987" width="194.3023" height="72.2307" fill="#fff"/>
  <polygon points="194.813 41.207 18.463 41.207 18.463 29.765 18.463 18.322 194.813 18.322 194.813 41.207" fill="#fc0"/>
  <path d="M194.2714,1.7286V72.1634H1.7286V1.7286H194.2714M196,0H0V73.892H196V0Z" fill="#007c39"/>
  <path d="M18.614,92.4531V82.5022h1.3418v4.3423H21.614l3.2112-4.3423H26.363l-3.6483,4.87,3.7844,5.0811H24.8556l-3.2563-4.4175H19.9558v4.4175Zm10.9455.1508a1.7072,1.7072,0,0,1-1.4023-.49,2.13,2.13,0,0,1-.3919-1.3647V81.9h1.2814v8.7593a.9147.9147,0,0,0,.1883.6559.7908.7908,0,0,0,.5808.1884c.07,0,.1356-.0026.196-.0076s.12-.0122.1808-.0224v1.0855A4.8893,4.8893,0,0,1,29.56,92.6039Zm2.8644-8.8954a.852.852,0,0,1-.6184-.2336.7764.7764,0,0,1-.2411-.5808.753.753,0,0,1,.2411-.5726.9591.9591,0,0,1,1.2368,0,.753.753,0,0,1,.2411.5726.7764.7764,0,0,1-.2411.5808A.852.852,0,0,1,32.4239,83.7085Zm-.6331,8.7446V84.9148h1.2814v7.5383Zm3.6635,0V84.9148h1.1911v1.4474A3.1535,3.1535,0,0,1,37.58,85.224a2.4368,2.4368,0,0,1,1.5226-.46,2.3376,2.3376,0,0,1,1.3946.4148,2.2231,2.2231,0,0,1,.8215,1.2286,3.5277,3.5277,0,0,1,.95-1.1606,2.4329,2.4329,0,0,1,1.5682-.4828,2.2491,2.2491,0,0,1,1.7714.7387,3.2283,3.2283,0,0,1,.656,2.2014v4.749H44.9828V87.87a2.2921,2.2921,0,0,0-.3995-1.47,1.4031,1.4031,0,0,0-1.1535-.49,1.8284,1.8284,0,0,0-1.1911.3919,2.794,2.794,0,0,0-.7387.8895v5.2618H40.2186V87.87a2.2914,2.2914,0,0,0-.4-1.47,1.4028,1.4028,0,0,0-1.1535-.49,1.8281,1.8281,0,0,0-1.191.3919,2.794,2.794,0,0,0-.7387.8895v5.2618Zm14.639.1508a2.2691,2.2691,0,0,1-1.6434-.6108,2.3046,2.3046,0,0,1,.166-3.3315,3.3731,3.3731,0,0,1,2.1709-.6407h1.7039v-.2417q0-1.9145-1.779-1.9145a2.8234,2.8234,0,0,0-1.01.1883,2.5244,2.5244,0,0,0-.86.5351l-.663-.859a3.6424,3.6424,0,0,1,2.6233-.9951q2.91,0,2.91,3.0452v2.9254q0,.7987.6331.7986a1.1756,1.1756,0,0,0,.1284-.0076c.0452-.0051.1031-.0122.1732-.0224v1.0855a3.59,3.59,0,0,1-.6179.0452,1.3375,1.3375,0,0,1-1.4774-1.3871,2.9051,2.9051,0,0,1-1.04,1.0251A2.804,2.804,0,0,1,50.0933,92.6039Zm.3772-1.1007a2.2328,2.2328,0,0,0,2.02-1.2667V89.016h-1.583a2.2,2.2,0,0,0-1.3267.3538,1.1408,1.1408,0,0,0-.4828.9723,1.0555,1.0555,0,0,0,.37.8448A1.4887,1.4887,0,0,0,50.4705,91.5032Zm5.6837.95V84.9148h1.1911v1.4474a3.4218,3.4218,0,0,1,.95-1.1306,2.4346,2.4346,0,0,1,1.5378-.4676,2.314,2.314,0,0,1,1.8013.7387,3.1785,3.1785,0,0,1,.6712,2.2014v4.749H61.0241V87.87a2.2032,2.2032,0,0,0-.4224-1.47,1.4873,1.4873,0,0,0-1.1911-.49,1.882,1.882,0,0,0-1.2134.3919,2.9464,2.9464,0,0,0-.7616.8895v5.2618Zm11.443.1807a3.5073,3.5073,0,0,1-1.8546-.4671,3.0681,3.0681,0,0,1-1.1758-1.289A4.242,4.242,0,0,1,64.16,88.97v-.5727a4.3945,4.3945,0,0,1,.3919-1.9,3.0637,3.0637,0,0,1,1.116-1.2967,3.1282,3.1282,0,0,1,1.7338-.4671,3.0554,3.0554,0,0,1,1.7185.4671A2.9083,2.9083,0,0,1,70.19,86.49a4.6467,4.6467,0,0,1,.362,1.8922v.7239H65.4111a2.7123,2.7123,0,0,0,.6178,1.7562,2.0886,2.0886,0,0,0,1.6435.6407,2.74,2.74,0,0,0,1.1159-.2188,3.0711,3.0711,0,0,0,.9042-.61l.6483.8743a3.68,3.68,0,0,1-1.1981.7991A3.9816,3.9816,0,0,1,67.5972,92.6338Zm-.2264-6.7991a1.7037,1.7037,0,0,0-1.3794.6032,2.7809,2.7809,0,0,0-.5651,1.6733h3.8895a2.8537,2.8537,0,0,0-.558-1.651A1.6715,1.6715,0,0,0,67.3708,85.8347Zm7.3423,6.7692a2.2549,2.2549,0,0,1-1.7637-.7387,3.2005,3.2005,0,0,1-.6636-2.2014v-4.749h1.2815v4.5835a2.2,2.2,0,0,0,.4224,1.47,1.4514,1.4514,0,0,0,1.1606.49,1.8494,1.8494,0,0,0,1.2062-.392,2.9983,2.9983,0,0,0,.754-.8894V84.9148h1.2814v7.5383H77.2008V91.0056a3.4231,3.4231,0,0,1-.95,1.1307A2.4366,2.4366,0,0,1,74.7131,92.6039Zm8.7142,0a2.1864,2.1864,0,0,1-1.779-.626,3.228,3.228,0,0,1-.5128-2.0425V86H79.8394V84.9148h1.2961V83.2414l1.2819-.3016v1.975h1.93V86h-1.93v3.89a1.8983,1.8983,0,0,0,.3087,1.2738,1.3348,1.3348,0,0,0,1.0027.3245q.1356,0,.294-.0153t.3244-.0457v1.1007c-.131.02-.2741.0376-.43.0528S83.5984,92.6039,83.4273,92.6039Zm2.4877-.1508V84.9148h1.191v1.7637a3.4926,3.4926,0,0,1,.5052-.9047,2.4611,2.4611,0,0,1,2.0425-.9646,3.23,3.23,0,0,1,.528.0452v1.221q-.1211-.0145-.264-.0224t-.2788-.0076a2.485,2.485,0,0,0-1.5454.4524,3.1234,3.1234,0,0,0-.8971,1.0255v4.93Zm7.2514.1508a2.2691,2.2691,0,0,1-1.6434-.6108,2.3046,2.3046,0,0,1,.166-3.3315,3.3732,3.3732,0,0,1,2.171-.6407h1.7038v-.2417q0-1.9145-1.779-1.9145a2.8234,2.8234,0,0,0-1.01.1883,2.524,2.524,0,0,0-.8595.5351l-.6631-.859a3.6424,3.6424,0,0,1,2.6233-.9951q2.91,0,2.91,3.0452v2.9254q0,.7987.6331.7986a1.1742,1.1742,0,0,0,.1284-.0076c.0452-.0051.1031-.0122.1732-.0224v1.0855a3.5894,3.5894,0,0,1-.6179.0452,1.3375,1.3375,0,0,1-1.4774-1.3871,2.9051,2.9051,0,0,1-1.04,1.0251A2.8037,2.8037,0,0,1,93.1664,92.6039Zm.3773-1.1007a2.2327,2.2327,0,0,0,2.02-1.2667V89.016h-1.583a2.2,2.2,0,0,0-1.3266.3538,1.1407,1.1407,0,0,0-.4829.9723,1.0552,1.0552,0,0,0,.37.8448A1.4883,1.4883,0,0,0,93.5437,91.5032Zm7.4626,1.1007a1.7074,1.7074,0,0,1-1.4023-.49,2.13,2.13,0,0,1-.3919-1.3647V81.9h1.2814v8.7593a.9147.9147,0,0,0,.1884.6559.7906.7906,0,0,0,.5808.1884c.07,0,.1356-.0026.196-.0076s.12-.0122.1807-.0224v1.0855A4.888,4.888,0,0,1,101.0063,92.6039Zm5.2313.03a3.5057,3.5057,0,0,1-1.8541-.4671,3.0724,3.0724,0,0,1-1.1763-1.289,4.2486,4.2486,0,0,1-.4067-1.9074v-.5727a4.393,4.393,0,0,1,.392-1.9,3.0624,3.0624,0,0,1,1.1154-1.2967,3.13,3.13,0,0,1,1.7338-.4671,3.0569,3.0569,0,0,1,1.719.4671,2.9092,2.9092,0,0,1,1.07,1.2891,4.6567,4.6567,0,0,1,.3619,1.8922v.7239h-5.1414a2.712,2.712,0,0,0,.6184,1.7562,2.0885,2.0885,0,0,0,1.6434.6407,2.7371,2.7371,0,0,0,1.1154-.2188,3.0733,3.0733,0,0,0,.9047-.61l.6483.8743a3.6754,3.6754,0,0,1-1.1986.7991A3.978,3.978,0,0,1,106.2376,92.6338Zm-.2259-6.7991a1.703,1.703,0,0,0-1.3794.6032,2.781,2.781,0,0,0-.5656,1.6733h3.89a2.8607,2.8607,0,0,0-.558-1.651A1.6715,1.6715,0,0,0,106.0117,85.8347Zm5.0054,6.6184V84.9148h1.1911v1.7637a3.4893,3.4893,0,0,1,.5051-.9047,2.4612,2.4612,0,0,1,2.043-.9646,3.2231,3.2231,0,0,1,.5275.0452v1.221q-.121-.0145-.264-.0224t-.2787-.0076a2.4865,2.4865,0,0,0-1.5455.4524,3.1234,3.1234,0,0,0-.8971,1.0255v4.93Zm11.1115,0-3.2417-9.9509h1.4023l2.804,8.7146h.2112l2.804-8.7146h1.3571l-3.2416,9.9509Zm9.2269.1807a3.5067,3.5067,0,0,1-1.8541-.4671,3.0681,3.0681,0,0,1-1.1758-1.289,4.2407,4.2407,0,0,1-.4072-1.9074v-.5727a4.3945,4.3945,0,0,1,.3919-1.9,3.0631,3.0631,0,0,1,1.1154-1.2967,3.131,3.131,0,0,1,1.7338-.4671,3.0563,3.0563,0,0,1,1.7191.4671,2.9083,2.9083,0,0,1,1.07,1.2891,4.6551,4.6551,0,0,1,.362,1.8922v.7239H129.17a2.7091,2.7091,0,0,0,.6178,1.7562,2.0885,2.0885,0,0,0,1.6434.6407,2.7359,2.7359,0,0,0,1.1155-.2188,3.0669,3.0669,0,0,0,.9047-.61l.6483.8743a3.6758,3.6758,0,0,1-1.1987.7991A3.9772,3.9772,0,0,1,131.3555,92.6338Zm-.2259-6.7991a1.7036,1.7036,0,0,0-1.3794.6032,2.78,2.78,0,0,0-.5656,1.6733h3.89a2.8622,2.8622,0,0,0-.558-1.651A1.6715,1.6715,0,0,0,131.13,85.8347Zm5.0054,6.6184V84.9148h1.191v1.7637a3.5073,3.5073,0,0,1,.5052-.9047,2.4612,2.4612,0,0,1,2.043-.9646,3.224,3.224,0,0,1,.5275.0452v1.221c-.0808-.01-.1686-.0173-.264-.0224s-.1884-.0076-.2788-.0076a2.486,2.486,0,0,0-1.5454.4524,3.1223,3.1223,0,0,0-.8971,1.0255v4.93Zm7.8546.1807a3.8794,3.8794,0,0,1-2.7741-1.055l.5879-.8595a3.1346,3.1346,0,0,0,2.1709.8291,2.1261,2.1261,0,0,0,1.2287-.3087.9693.9693,0,0,0,.4452-.8367q0-.86-1.01-1.1007l-1.1159-.2569a2.824,2.824,0,0,1-1.4927-.7839,1.9712,1.9712,0,0,1-.5122-1.387,1.8739,1.8739,0,0,1,.761-1.5454,3.1282,3.1282,0,0,1,1.9826-.5951,4.1376,4.1376,0,0,1,2.669.9494l-.558.8895a3.3021,3.3021,0,0,0-2.0354-.7534,1.9454,1.9454,0,0,0-1.123.2863.89.89,0,0,0-.4148.7687q0,.7692,1.0855,1.0255L145,88.1559a2.1894,2.1894,0,0,1,1.96,2.2471,1.9265,1.9265,0,0,1-.8067,1.6277A3.5291,3.5291,0,0,1,143.99,92.6338Zm6.3619-.03a2.2683,2.2683,0,0,1-1.6434-.6108,2.3046,2.3046,0,0,1,.166-3.3315,3.3723,3.3723,0,0,1,2.171-.6407h1.7038v-.2417q0-1.9145-1.779-1.9145a2.8234,2.8234,0,0,0-1.01.1883,2.5192,2.5192,0,0,0-.8595.5351l-.6631-.859a3.6424,3.6424,0,0,1,2.6233-.9951q2.9091,0,2.91,3.0452v2.9254q0,.7987.6331.7986a1.1742,1.1742,0,0,0,.1284-.0076c.0452-.0051.1026-.0122.1732-.0224v1.0855a3.5934,3.5934,0,0,1-.6179.0452,1.3381,1.3381,0,0,1-1.4779-1.3871,2.8973,2.8973,0,0,1-1.04,1.0251A2.8006,2.8006,0,0,1,150.3515,92.6039Zm.3767-1.1007a2.2334,2.2334,0,0,0,2.0207-1.2667V89.016h-1.583a2.2023,2.2023,0,0,0-1.3271.3538,1.14,1.14,0,0,0-.4824.9723,1.0552,1.0552,0,0,0,.37.8448A1.487,1.487,0,0,0,150.7282,91.5032Zm5.6842.95V84.9148h1.1911v1.4474a3.4218,3.4218,0,0,1,.95-1.1306,2.4348,2.4348,0,0,1,1.5378-.4676,2.313,2.313,0,0,1,1.8013.7387,3.1785,3.1785,0,0,1,.6712,2.2014v4.749h-1.2814V87.87a2.2032,2.2032,0,0,0-.4224-1.47,1.4873,1.4873,0,0,0-1.1911-.49,1.8822,1.8822,0,0,0-1.2134.3919,2.9461,2.9461,0,0,0-.7615.8895v5.2618Zm10.87.1508a2.5583,2.5583,0,0,1-1.515-.4524,2.9428,2.9428,0,0,1-.9951-1.2662,4.764,4.764,0,0,1-.3544-1.915v-.5727a4.7665,4.7665,0,0,1,.3544-1.9151,2.9235,2.9235,0,0,1,1.0022-1.2662,2.57,2.57,0,0,1,1.5079-.4523,2.6569,2.6569,0,0,1,1.387.3691,2.8293,2.8293,0,0,1,1.01,1.0631V81.9h1.2814V92.4531h-1.191V91.0056a2.9838,2.9838,0,0,1-1.0327,1.1835A2.6224,2.6224,0,0,1,167.2828,92.6039ZM165.7,88.9251a2.9087,2.9087,0,0,0,.5351,1.8617,1.7769,1.7769,0,0,0,1.47.6712,2.04,2.04,0,0,0,1.1382-.3392,2.4667,2.4667,0,0,0,.8367-.9422V87.1913a2.467,2.467,0,0,0-.8367-.9423,2.04,2.04,0,0,0-1.1382-.3391,1.7771,1.7771,0,0,0-1.47.6711,2.91,2.91,0,0,0-.5351,1.8618ZM18.4632,109.6092v-7.5383h1.1911v1.4475a3.1525,3.1525,0,0,1,.9346-1.1383,2.4374,2.4374,0,0,1,1.5226-.46,2.3377,2.3377,0,0,1,1.3947.4148,2.2229,2.2229,0,0,1,.8214,1.2286,3.5287,3.5287,0,0,1,.95-1.1606,2.4338,2.4338,0,0,1,1.5683-.4828,2.25,2.25,0,0,1,1.7714.7387,3.2283,3.2283,0,0,1,.6559,2.2014v4.749H27.9917v-4.5835a2.2916,2.2916,0,0,0-.4-1.47,1.4031,1.4031,0,0,0-1.1535-.49,1.8287,1.8287,0,0,0-1.191.3919,2.794,2.794,0,0,0-.7387.8895v5.2618H23.2274v-4.5835a2.2922,2.2922,0,0,0-.3995-1.47,1.4034,1.4034,0,0,0-1.1535-.49,1.8289,1.8289,0,0,0-1.1911.3919,2.7953,2.7953,0,0,0-.7387.8895v5.2618Zm13.7343-8.7446a.85.85,0,0,1-.6179-.2335.7745.7745,0,0,1-.2412-.5808.7514.7514,0,0,1,.2412-.5727.9586.9586,0,0,1,1.2362,0,.7531.7531,0,0,1,.2412.5727.7763.7763,0,0,1-.2412.5808A.8519.8519,0,0,1,32.1975,100.8646Zm-.6331,8.7446v-7.5383h1.2814v7.5383Zm6.3172.1508a2.1853,2.1853,0,0,1-1.7789-.626,3.2246,3.2246,0,0,1-.5128-2.0425v-3.9351H34.2932v-1.0855H35.59v-1.6734l1.2814-.3015v1.9749h1.93v1.0855h-1.93v3.89a1.898,1.898,0,0,0,.3092,1.2738,1.3338,1.3338,0,0,0,1.0027.3244q.1356,0,.294-.0152c.1056-.01.2132-.0254.3239-.0457v1.1007c-.13.02-.2737.0375-.4295.0528S38.0522,109.76,37.8816,109.76Zm5.7893-.1508V99.6583h3.3772a4.4829,4.4829,0,0,1,3.3392,1.1992,4.6114,4.6114,0,0,1,1.1834,3.3843v.7839a4.6111,4.6111,0,0,1-1.1834,3.3848,4.4823,4.4823,0,0,1-3.3392,1.1987Zm3.3772-8.7446H45.0128v7.5383h2.0353a3.0775,3.0775,0,0,0,2.3669-.8742,3.6322,3.6322,0,0,0,.8139-2.5629v-.6636a3.6341,3.6341,0,0,0-.8139-2.5633A3.0793,3.0793,0,0,0,47.0481,100.8646Zm6.7539,8.7446V99.6583h1.3419v4.3124h5.1714V99.6583h1.3419v9.9509H60.3153V105.177H55.1439v4.4322Zm10.5383,0V99.6583h1.3419v8.7446h4.7642v1.2063Z" fill="#007c39"/>
  <path d="M27.4784,41.7264a9.2856,9.2856,0,0,1-6.6054-2.2537,7.9931,7.9931,0,0,1-2.41-6.137q0-.7974.1041-1.8379t.312-2.1151q1.04-5.6514,4.04-8.6161a10.42,10.42,0,0,1,7.6456-2.965,9.3338,9.3338,0,0,1,7.6627,3.4676L34.968,24.2164a5.5988,5.5988,0,0,0-1.9245-1.5429,5.7457,5.7457,0,0,0-2.41-.4681,5.5608,5.5608,0,0,0-4.3862,1.82,11.76,11.76,0,0,0-2.3057,5.7736q-.174.9017-.26,1.7855T23.595,33.093a4.3293,4.3293,0,0,0,1.0576,3.1381,3.9807,3.9807,0,0,0,2.9992,1.092,4.966,4.966,0,0,0,3.5366-1.3,6.2676,6.2676,0,0,0,1.7686-3.7275l.0345-.2081H28.4146l.728-4.1606h9.57l-.5549,3.2244Q36.32,41.7275,27.4784,41.7264Zm23.0234,0a9.6763,9.6763,0,0,1-6.7268-2.2186,7.7141,7.7141,0,0,1-2.4618-6.0335,24.4743,24.4743,0,0,1,.416-4.0916q.9706-5.617,3.9355-8.5988a10.27,10.27,0,0,1,7.6109-2.9823,9.68,9.68,0,0,1,6.7267,2.2192,7.7169,7.7169,0,0,1,2.4618,6.0335,24.4471,24.4471,0,0,1-.416,4.0915q-.971,5.6172-3.9354,8.5989A10.2709,10.2709,0,0,1,50.5018,41.7264Zm.1386-4.4033a5.1316,5.1316,0,0,0,4.1435-1.8378A12.0957,12.0957,0,0,0,56.9858,29.73q.173-.9009.26-1.8551t.0868-1.5774A4.02,4.02,0,0,0,56.24,23.2457a4.3243,4.3243,0,0,0-3.1033-1.04,5.1326,5.1326,0,0,0-4.1436,1.8379,12.0846,12.0846,0,0,0-2.2016,5.7558,18.58,18.58,0,0,0-.26,1.8546q-.0868.9541-.0866,1.5779a4.0186,4.0186,0,0,0,1.0921,3.0513A4.3231,4.3231,0,0,0,50.64,37.3231Z" fill="#4b4b4b"/>
  <path d="M74.114,41.7264a9.2857,9.2857,0,0,1-6.6054-2.2537,7.9935,7.9935,0,0,1-2.41-6.137q0-.7974.1041-1.8379t.312-2.1151q1.04-5.6514,4.04-8.6161A10.42,10.42,0,0,1,77.2,17.8016a9.334,9.334,0,0,1,7.6627,3.4676l-3.2592,2.9472a5.5985,5.5985,0,0,0-1.9244-1.5429,5.7457,5.7457,0,0,0-2.41-.4681,5.5609,5.5609,0,0,0-4.3863,1.82,11.76,11.76,0,0,0-2.3057,5.7736q-.174.9017-.26,1.7855t-.0865,1.5084a4.3293,4.3293,0,0,0,1.0575,3.1381,3.9809,3.9809,0,0,0,2.9992,1.092,4.9658,4.9658,0,0,0,3.5366-1.3,6.2676,6.2676,0,0,0,1.7686-3.7275l.0345-.2081H75.05l.7281-4.1606h9.57l-.5549,3.2244Q82.9554,41.7275,74.114,41.7264Zm13.1413-.52L91.2775,18.322h8.01a9.6739,9.6739,0,0,1,6.0333,1.6815,5.3149,5.3149,0,0,1,2.1843,4.4211q0,.4158-.052.9879t-.1561,1.1617a8.1182,8.1182,0,0,1-1.6122,3.8143,6.7551,6.7551,0,0,1-3.346,2.1151l3.4326,8.7029h-5.5824L97.3108,33.093H93.7394l-1.4216,8.1135ZM98.663,22.4481H95.6118l-1.1444,6.5188h3.1208a6.4635,6.4635,0,0,0,3.3633-.6935,3.2028,3.2028,0,0,0,1.387-2.3232,1.9594,1.9594,0,0,0,.0693-.4508v-.2082Q102.4078,22.4484,98.663,22.4481Zm10.7835,18.7584,4.0223-22.8845h15.0829l-.7628,4.3688h-9.9511l-.8669,4.82h8.9456l-.728,4.23h-8.9459l-.9014,5.0973h10.2981l-.7628,4.3687Zm19.833,0,4.0223-22.8845h15.0829l-.7628,4.3688h-9.9511l-.8669,4.82H145.75l-.728,4.23h-8.9459l-.9014,5.0973h10.2981l-.7628,4.3687Zm19.66,0,4.0223-22.8845H159.48l4.6116,16.1926h.5547L167.49,18.322h4.82l-4.022,22.8845h-6.5188L157.157,25.014h-.5549L153.759,41.2065Z" fill="#007c39"/>
</svg>
