<svg id="Logo" xmlns="http://www.w3.org/2000/svg" width="196" height="109.76" viewBox="0 0 196 109.76">
  <title>DHL_GG_CNS_rgb</title>
  <rect x="0.868" y="0.7987" width="194.3023" height="72.2307" fill="#fff"/>
  <polygon points="194.813 41.207 18.463 41.207 18.463 29.765 18.463 18.322 194.813 18.322 194.813 41.207" fill="#fc0"/>
  <path d="M194.2714,1.7286V72.1634H1.7286V1.7286H194.2714M196,0H0V73.892H196V0Z" fill="#007c39"/>
  <path d="M18.964,90.635a5.6092,5.6092,0,0,1-.5055-2.475v-.82a5.6123,5.6123,0,0,1,.5055-2.475,3.75,3.75,0,0,1,1.4279-1.6038,4.1328,4.1328,0,0,1,2.1968-.5636A3.9257,3.9257,0,0,1,25.84,84.1908l-.8054.8641a3.093,3.093,0,0,0-2.4461-1.1718,2.4949,2.4949,0,0,0-2.0651.9377,4.0307,4.0307,0,0,0-.7468,2.5776v.7032a4.0309,4.0309,0,0,0,.7468,2.5776,2.4948,2.4948,0,0,0,2.0651.9372,3.2517,3.2517,0,0,0,1.3621-.293,3.4041,3.4041,0,0,0,1.1571-.8788l.8054.8641a3.7953,3.7953,0,0,1-1.4426,1.1134,4.5819,4.5819,0,0,1-1.882.3808,4.133,4.133,0,0,1-2.1968-.5641A3.7442,3.7442,0,0,1,18.964,90.635Zm10.5083,1.0255a.7661.7661,0,0,1-.5638-.1832.8855.8855,0,0,1-.1833-.6372v-8.51H27.48v8.5973a2.07,2.07,0,0,0,.3807,1.3256,1.66,1.66,0,0,0,1.3622.4758,4.7672,4.7672,0,0,0,.615-.0437V91.6311c-.0583.01-.117.0173-.1756.0218S29.5406,91.6605,29.4723,91.6605Zm1.9186.9225h1.2449V85.26H31.3909Zm.6151-8.4948a.8282.8282,0,0,0,.6006-.2269.7537.7537,0,0,0,.2343-.5641.7307.7307,0,0,0-.2343-.5564.93.93,0,0,0-1.201,0,.73.73,0,0,0-.2343.5564.7526.7526,0,0,0,.2343.5641A.8265.8265,0,0,0,32.006,84.0882Zm11.0871,1.0256a2.3605,2.3605,0,0,0-1.5231.4686,3.4243,3.4243,0,0,0-.9228,1.1276,2.1615,2.1615,0,0,0-.7983-1.1936,2.2691,2.2691,0,0,0-1.3548-.4026,2.371,2.371,0,0,0-1.4792.4462,3.0677,3.0677,0,0,0-.908,1.1058V85.26H34.95v7.323h1.2448V87.4715a2.7168,2.7168,0,0,1,.7177-.8641,1.7757,1.7757,0,0,1,1.157-.3808,1.3627,1.3627,0,0,1,1.12.4763,2.2245,2.2245,0,0,1,.3881,1.4276V92.583h1.2449V87.4715a2.7164,2.7164,0,0,1,.7176-.8641,1.7758,1.7758,0,0,1,1.1571-.3808,1.363,1.363,0,0,1,1.12.4763,2.2239,2.2239,0,0,1,.3881,1.4276V92.583h1.2449V87.97a3.1363,3.1363,0,0,0-.6372-2.1385A2.1857,2.1857,0,0,0,43.0931,85.1138Zm7.4545,7.2641a2.7223,2.7223,0,0,1-1.3766.3514,2.2039,2.2039,0,0,1-1.5965-.593A2.239,2.239,0,0,1,47.7357,88.9a3.279,3.279,0,0,1,2.109-.6225H51.5v-.2345q0-1.86-1.7285-1.86a2.7527,2.7527,0,0,0-.9811.1833,2.4458,2.4458,0,0,0-.8349.52l-.6443-.8347a3.54,3.54,0,0,1,2.5484-.9667q2.8266,0,2.8267,2.9584v2.8416q0,.776.615.7762a1.0864,1.0864,0,0,0,.1246-.0076c.044-.0045.1-.0122.1683-.0218v1.0545a3.5044,3.5044,0,0,1-.6.0437,1.3,1.3,0,0,1-1.4355-1.3475A2.8116,2.8116,0,0,1,50.5476,92.3779Zm-1.0106-.7174A2.17,2.17,0,0,0,51.5,90.43v-1.186H49.962a2.1377,2.1377,0,0,0-1.2891.3442,1.108,1.108,0,0,0-.4686.9444,1.0256,1.0256,0,0,0,.359.82A1.4461,1.4461,0,0,0,49.537,91.6605ZM56.45,83.3414l-1.2449.2929V85.26h-1.26v1.0545h1.26v3.8224a3.1382,3.1382,0,0,0,.4978,1.9846,2.1229,2.1229,0,0,0,1.7282.6078q.249,0,.4762-.0219c.1511-.0147.29-.0314.4174-.0513V91.5869c-.1077.02-.2125.0345-.3151.0442s-.1975.0147-.2856.0147a1.2977,1.2977,0,0,1-.9737-.3147,1.8462,1.8462,0,0,1-.3-1.2378V86.3145h1.8747V85.26H56.45Zm3.3685,7.7109A4.1209,4.1209,0,0,1,59.4235,89.2v-.5564a4.2676,4.2676,0,0,1,.3807-1.8455,2.9766,2.9766,0,0,1,1.0837-1.26,3.0383,3.0383,0,0,1,1.6843-.4539,2.9667,2.9667,0,0,1,1.67.4539,2.8261,2.8261,0,0,1,1.04,1.2525,4.5226,4.5226,0,0,1,.3516,1.8379v.7031H60.6391a2.6358,2.6358,0,0,0,.6,1.7064,2.03,2.03,0,0,0,1.5964.6224,2.6637,2.6637,0,0,0,1.0837-.2127,2.9849,2.9849,0,0,0,.8788-.593l.63.8494a3.574,3.574,0,0,1-1.1644.7763,3.866,3.866,0,0,1-1.5012.2782,3.4049,3.4049,0,0,1-1.8013-.4539A2.9792,2.9792,0,0,1,59.8189,91.0523Zm.8347-2.6872h3.7788a2.7757,2.7757,0,0,0-.542-1.6039,1.6248,1.6248,0,0,0-1.3474-.6077,1.6557,1.6557,0,0,0-1.34.5859A2.7042,2.7042,0,0,0,60.6536,88.3651ZM74.04,85.1138a2.3673,2.3673,0,0,0-1.4939.4538,3.3214,3.3214,0,0,0-.9228,1.0982V85.26h-1.157v7.323h1.2449V87.4715a2.8561,2.8561,0,0,1,.74-.8641,1.827,1.827,0,0,1,1.1788-.3808,1.445,1.445,0,0,1,1.1571.4763,2.1381,2.1381,0,0,1,.41,1.4276V92.583H76.442V87.97a3.089,3.089,0,0,0-.6519-2.1385A2.2483,2.2483,0,0,0,74.04,85.1138Zm10.0618,1.6769a4.5226,4.5226,0,0,1,.3516,1.8379v.7031H79.4593a2.6357,2.6357,0,0,0,.6,1.7064,2.03,2.03,0,0,0,1.5965.6224,2.6636,2.6636,0,0,0,1.0836-.2127,2.9867,2.9867,0,0,0,.8789-.593l.63.8494a3.5754,3.5754,0,0,1-1.1645.7763,3.866,3.866,0,0,1-1.5012.2782,3.4049,3.4049,0,0,1-1.8013-.4539,2.9789,2.9789,0,0,1-1.1423-1.2525A4.12,4.12,0,0,1,78.2436,89.2v-.5564a4.2676,4.2676,0,0,1,.3807-1.8455,2.9766,2.9766,0,0,1,1.0837-1.26,3.0383,3.0383,0,0,1,1.6843-.4539,2.9667,2.9667,0,0,1,1.67.4539A2.8261,2.8261,0,0,1,84.1019,86.7907Zm-.8494,1.5744a2.775,2.775,0,0,0-.542-1.6039,1.6248,1.6248,0,0,0-1.3474-.6077,1.6557,1.6557,0,0,0-1.34.5859,2.7048,2.7048,0,0,0-.5493,1.6257Zm7.5718,2.0064a2.9064,2.9064,0,0,1-.732.8641,1.7992,1.7992,0,0,1-1.1718.3808,1.4091,1.4091,0,0,1-1.1279-.4762,2.1375,2.1375,0,0,1-.41-1.4277V85.26H86.1378v4.6134a3.11,3.11,0,0,0,.6442,2.1385,2.1919,2.1919,0,0,0,1.7138.7174,2.3653,2.3653,0,0,0,1.4939-.4539,3.3307,3.3307,0,0,0,.9227-1.0982V92.583H92.07V85.26H90.8243Zm5.1554-7.03-1.2448.2929V85.26h-1.26v1.0545h1.26v3.8224a3.1376,3.1376,0,0,0,.4978,1.9846,2.1229,2.1229,0,0,0,1.7282.6078q.249,0,.4762-.0219c.1511-.0147.29-.0314.4173-.0513V91.5869c-.1076.02-.2124.0345-.315.0442s-.1975.0147-.2856.0147a1.2977,1.2977,0,0,1-.9737-.3147,1.8461,1.8461,0,0,1-.3-1.2378V86.3145h1.8747V85.26H95.98Zm5.851,2.08a2.4809,2.4809,0,0,0-.8054.6738,3.3932,3.3932,0,0,0-.4907.8788V85.26H99.3775v7.323h1.2449V87.7939a3.0276,3.0276,0,0,1,.8715-.9961,2.415,2.415,0,0,1,1.5012-.4392c.0879,0,.178.0026.2709.0072s.1782.0121.2564.0218v-1.186a3.1066,3.1066,0,0,0-.5125-.0442A2.4608,2.4608,0,0,0,101.8307,85.4209Zm8.8464,6.232c.0439-.0045.1-.0122.1683-.0218v1.0545a3.5057,3.5057,0,0,1-.6.0437,1.3,1.3,0,0,1-1.4355-1.3475,2.8105,2.8105,0,0,1-1.01.9961,2.7226,2.7226,0,0,1-1.3767.3514,2.2038,2.2038,0,0,1-1.5964-.593,2.239,2.239,0,0,1,.1612-3.2366,3.2786,3.2786,0,0,1,2.109-.6225h1.6551v-.2345q0-1.86-1.7285-1.86a2.7523,2.7523,0,0,0-.9811.1833,2.4449,2.4449,0,0,0-.8349.52l-.6443-.8347a3.54,3.54,0,0,1,2.5484-.9667q2.8264,0,2.8266,2.9584v2.8416q0,.776.6151.7762A1.0864,1.0864,0,0,0,110.6771,91.6529Zm-1.9259-2.409h-1.5379a2.1375,2.1375,0,0,0-1.289.3442,1.108,1.108,0,0,0-.4686.9444,1.0258,1.0258,0,0,0,.3589.82,1.4464,1.4464,0,0,0,.9738.3076,2.17,2.17,0,0,0,1.9628-1.2306Zm5.5362,2.4166a.7666.7666,0,0,1-.5639-.1832.886.886,0,0,1-.1832-.6372v-8.51h-1.2449v8.5973a2.0691,2.0691,0,0,0,.3808,1.3256,1.6594,1.6594,0,0,0,1.3621.4758,4.77,4.77,0,0,0,.6151-.0437V91.6311c-.0584.01-.117.0173-.1757.0218S114.3556,91.6605,114.2874,91.6605Zm7.9381-3.2518-1.084-.2487q-1.0543-.2492-1.0545-.9961a.8649.8649,0,0,1,.4029-.7469,1.8917,1.8917,0,0,1,1.0911-.2782,3.207,3.207,0,0,1,1.9772.7321l.5419-.8641a4.017,4.017,0,0,0-2.5925-.9225,3.0378,3.0378,0,0,0-1.926.5783,1.82,1.82,0,0,0-.7394,1.5013,1.9148,1.9148,0,0,0,.4978,1.3474,2.7453,2.7453,0,0,0,1.45.7615l1.0839.2493q.9808.2346.9811,1.0692a.94.94,0,0,1-.432.8128,2.0661,2.0661,0,0,1-1.1936.3,3.0454,3.0454,0,0,1-2.109-.8057l-.5712.8352a3.77,3.77,0,0,0,2.6949,1.025,3.427,3.427,0,0,0,2.1016-.5859,1.8717,1.8717,0,0,0,.7836-1.5815A2.127,2.127,0,0,0,122.2255,88.4087Zm7.2788-3.2949a2.3442,2.3442,0,0,0-1.4208.4173,3.1678,3.1678,0,0,0-.908,1.018V82.3306h-1.2448V92.583h1.2448V87.4715a2.859,2.859,0,0,1,.74-.8641,1.8272,1.8272,0,0,1,1.1789-.3808,1.4446,1.4446,0,0,1,1.157.4763,2.1376,2.1376,0,0,1,.41,1.4276V92.583h1.2449V87.97a3.0894,3.0894,0,0,0-.6519-2.1385A2.2484,2.2484,0,0,0,129.5043,85.1138Zm4.6282,7.4692h1.2449V85.26h-1.2449Zm.6151-10.062a.8431.8431,0,0,0-.6.22.73.73,0,0,0-.2343.5564.753.753,0,0,0,.2343.5641.9081.9081,0,0,0,1.201,0,.7537.7537,0,0,0,.2343-.5641.7307.7307,0,0,0-.2343-.5564A.845.845,0,0,0,134.7476,82.521Zm8.956,4.2621a4.6372,4.6372,0,0,1,.3443,1.86V89.2a4.6369,4.6369,0,0,1-.3443,1.86,2.8383,2.8383,0,0,1-.974,1.23,2.4951,2.4951,0,0,1-1.4644.4392,2.5754,2.5754,0,0,1-1.3475-.3585,2.7373,2.7373,0,0,1-.9813-1.0327v4.0276h-1.2449V85.26h1.157v1.4058a2.9009,2.9009,0,0,1,1.0032-1.1494,2.5444,2.5444,0,0,1,1.4135-.4026,2.4943,2.4943,0,0,1,1.4644.4392A2.8375,2.8375,0,0,1,143.7036,86.7831Zm-.9006,1.9038a2.8289,2.8289,0,0,0-.52-1.8084,1.7271,1.7271,0,0,0-1.4281-.6519,1.9825,1.9825,0,0,0-1.1058.3295,2.3973,2.3973,0,0,0-.8128.9154v2.9a2.3973,2.3973,0,0,0,.8128.9154,1.9825,1.9825,0,0,0,1.1058.3295,1.7271,1.7271,0,0,0,1.4281-.6519,2.8277,2.8277,0,0,0,.52-1.8084Zm9.1462-1.9038a4.639,4.639,0,0,1,.3442,1.86V89.2a4.6386,4.6386,0,0,1-.3442,1.86,2.8392,2.8392,0,0,1-.9741,1.23,2.4951,2.4951,0,0,1-1.4644.4392,2.575,2.575,0,0,1-1.3474-.3585,2.7376,2.7376,0,0,1-.9814-1.0327v4.0276H145.937V85.26h1.157v1.4058a2.9,2.9,0,0,1,1.0033-1.1494,2.5438,2.5438,0,0,1,1.4134-.4026,2.4943,2.4943,0,0,1,1.4644.4392A2.8384,2.8384,0,0,1,151.9492,86.7831Zm-.9007,1.9038a2.8289,2.8289,0,0,0-.52-1.8084,1.7271,1.7271,0,0,0-1.4281-.6519,1.9827,1.9827,0,0,0-1.1058.3295,2.3981,2.3981,0,0,0-.8128.9154v2.9a2.3981,2.3981,0,0,0,.8128.9154,1.9827,1.9827,0,0,0,1.1058.3295,1.7271,1.7271,0,0,0,1.4281-.6519,2.8277,2.8277,0,0,0,.52-1.8084Zm3.7491-6.1659a.8427.8427,0,0,0-.6.22.73.73,0,0,0-.2343.5564.7526.7526,0,0,0,.2343.5641.9079.9079,0,0,0,1.2009,0,.7537.7537,0,0,0,.2343-.5641.7307.7307,0,0,0-.2343-.5564A.8446.8446,0,0,0,154.7976,82.521Zm-.6151,10.062h1.2449V85.26h-1.2449Zm7.1327-7.4692a2.3673,2.3673,0,0,0-1.4939.4538,3.3226,3.3226,0,0,0-.9228,1.0982V85.26h-1.157v7.323h1.2449V87.4715a2.8561,2.8561,0,0,1,.74-.8641,1.8271,1.8271,0,0,1,1.1789-.3808,1.4449,1.4449,0,0,1,1.157.4763,2.1381,2.1381,0,0,1,.41,1.4276V92.583h1.2449V87.97a3.089,3.089,0,0,0-.6519-2.1385A2.2482,2.2482,0,0,0,161.3152,85.1138Zm10.56.1462v7.0006a3.216,3.216,0,0,1-.8789,2.4461,3.5848,3.5848,0,0,1-2.5631.8347,3.7108,3.7108,0,0,1-2.5775-.9078l.5858-.8935a3.0516,3.0516,0,0,0,2.0064.6884,1.93,1.93,0,0,0,2.2116-2.1531V91.1772a2.8113,2.8113,0,0,1-.9885,1.0616,2.5656,2.5656,0,0,1-1.3695.3737A2.5168,2.5168,0,0,1,166.83,92.18a2.817,2.817,0,0,1-.9666-1.2083,4.4418,4.4418,0,0,1-.3442-1.816v-.557a4.4589,4.4589,0,0,1,.3513-1.8379,2.8635,2.8635,0,0,1,.974-1.2154,2.4943,2.4943,0,0,1,1.4574-.432,2.5447,2.5447,0,0,1,1.4134.4026,2.8844,2.8844,0,0,1,1.0032,1.1641V85.26ZM170.63,87.4715a2.3975,2.3975,0,0,0-.8129-.9154,1.9828,1.9828,0,0,0-1.1057-.3295,1.7352,1.7352,0,0,0-1.4282.6443,2.7474,2.7474,0,0,0-.52,1.7724v.4686a2.7464,2.7464,0,0,0,.52,1.7724,1.7352,1.7352,0,0,0,1.4282.6443,1.9507,1.9507,0,0,0,1.1057-.3372,2.4246,2.4246,0,0,0,.8129-.9372ZM25.8694,108.4862h-.1756l-1.5526-6.0487H22.4569l-1.5525,6.0487h-.1757l-1.5378-6.1955H17.8582l2.0211,7.3231H21.622l1.5525-5.9609H23.35l1.5526,5.9609h1.7721l2.0211-7.3231H27.4072Zm4.2472,1.1276h1.2448v-7.3231H30.1166Zm.615-10.0621a.8431.8431,0,0,0-.6.22.73.73,0,0,0-.2343.5565.7524.7524,0,0,0,.2343.564.9078.9078,0,0,0,1.201,0,.7535.7535,0,0,0,.2343-.564.731.731,0,0,0-.2343-.5565A.845.845,0,0,0,30.7316,99.5517Zm4.54.82-1.2449.293v1.6256h-1.26v1.0545h1.26v3.8225a3.1384,3.1384,0,0,0,.4978,1.9846,2.1232,2.1232,0,0,0,1.7282.6077q.249,0,.4762-.0219c.1511-.0147.29-.0314.4174-.0512v-1.0692c-.1077.02-.2125.0345-.3151.0441s-.1974.0147-.2855.0147a1.2974,1.2974,0,0,1-.9738-.3147,1.846,1.846,0,0,1-.3-1.2378v-3.7788h1.8747v-1.0545H35.272Zm6.9714,1.7724a2.3437,2.3437,0,0,0-1.4207.4173,3.168,3.168,0,0,0-.9081,1.018V99.3613H38.67v10.2525h1.2449v-5.1115a2.8567,2.8567,0,0,1,.74-.8641,1.8262,1.8262,0,0,1,1.1788-.3808,1.4449,1.4449,0,0,1,1.1571.4762,2.1389,2.1389,0,0,1,.41,1.4276v4.4526h1.2449V105a3.089,3.089,0,0,0-.6519-2.1384A2.2485,2.2485,0,0,0,42.2434,102.1445Zm14.36-1.0327a4.48,4.48,0,0,1,1.15,3.2879v.7615a4.48,4.48,0,0,1-1.15,3.2884,4.3543,4.3543,0,0,1-3.2439,1.1642H50.079V99.9472H53.36A4.3549,4.3549,0,0,1,56.6037,101.1118Zm-.1536,3.3468a3.5306,3.5306,0,0,0-.791-2.49,2.9894,2.9894,0,0,0-2.2993-.8493H51.3825v7.323H53.36a2.9877,2.9877,0,0,0,2.2993-.8494,3.528,3.528,0,0,0,.791-2.49Zm9.7981-.3224H61.2245v-4.189H59.921v9.6666h1.3035V105.308h5.0237v4.3058h1.3035V99.9472H66.2482Zm5.2138-4.189H70.1585v9.6666H76.09V108.442H71.462Z" fill="#007c39"/>
  <path d="M27.4784,41.7264a9.2856,9.2856,0,0,1-6.6054-2.2537,7.9931,7.9931,0,0,1-2.41-6.137q0-.7974.1041-1.8379t.312-2.1151q1.04-5.6514,4.04-8.6161a10.42,10.42,0,0,1,7.6456-2.965,9.3338,9.3338,0,0,1,7.6627,3.4676L34.968,24.2164a5.5988,5.5988,0,0,0-1.9245-1.5429,5.7457,5.7457,0,0,0-2.41-.4681,5.5608,5.5608,0,0,0-4.3862,1.82,11.76,11.76,0,0,0-2.3057,5.7736q-.174.9017-.26,1.7855T23.595,33.093a4.3293,4.3293,0,0,0,1.0576,3.1381,3.9807,3.9807,0,0,0,2.9992,1.092,4.966,4.966,0,0,0,3.5366-1.3,6.2676,6.2676,0,0,0,1.7686-3.7275l.0345-.2081H28.4146l.728-4.1606h9.57l-.5549,3.2244Q36.32,41.7275,27.4784,41.7264Zm23.0234,0a9.6763,9.6763,0,0,1-6.7268-2.2186,7.7141,7.7141,0,0,1-2.4618-6.0335,24.4743,24.4743,0,0,1,.416-4.0916q.9706-5.617,3.9355-8.5988a10.27,10.27,0,0,1,7.6109-2.9823,9.68,9.68,0,0,1,6.7267,2.2192,7.7169,7.7169,0,0,1,2.4618,6.0335,24.4471,24.4471,0,0,1-.416,4.0915q-.971,5.6172-3.9354,8.5989A10.2709,10.2709,0,0,1,50.5018,41.7264Zm.1386-4.4033a5.1316,5.1316,0,0,0,4.1435-1.8378A12.0957,12.0957,0,0,0,56.9858,29.73q.173-.9009.26-1.8551t.0868-1.5774A4.02,4.02,0,0,0,56.24,23.2457a4.3243,4.3243,0,0,0-3.1033-1.04,5.1326,5.1326,0,0,0-4.1436,1.8379,12.0846,12.0846,0,0,0-2.2016,5.7558,18.58,18.58,0,0,0-.26,1.8546q-.0868.9541-.0866,1.5779a4.0186,4.0186,0,0,0,1.0921,3.0513A4.3231,4.3231,0,0,0,50.64,37.3231Z" fill="#4b4b4b"/>
  <path d="M74.114,41.7264a9.2857,9.2857,0,0,1-6.6054-2.2537,7.9935,7.9935,0,0,1-2.41-6.137q0-.7974.1041-1.8379t.312-2.1151q1.04-5.6514,4.04-8.6161A10.42,10.42,0,0,1,77.2,17.8016a9.334,9.334,0,0,1,7.6627,3.4676l-3.2592,2.9472a5.5985,5.5985,0,0,0-1.9244-1.5429,5.7457,5.7457,0,0,0-2.41-.4681,5.5609,5.5609,0,0,0-4.3863,1.82,11.76,11.76,0,0,0-2.3057,5.7736q-.174.9017-.26,1.7855t-.0865,1.5084a4.3293,4.3293,0,0,0,1.0575,3.1381,3.9809,3.9809,0,0,0,2.9992,1.092,4.9658,4.9658,0,0,0,3.5366-1.3,6.2676,6.2676,0,0,0,1.7686-3.7275l.0345-.2081H75.05l.7281-4.1606h9.57l-.5549,3.2244Q82.9554,41.7275,74.114,41.7264Zm13.1413-.52L91.2775,18.322h8.01a9.6739,9.6739,0,0,1,6.0333,1.6815,5.3149,5.3149,0,0,1,2.1843,4.4211q0,.4158-.052.9879t-.1561,1.1617a8.1182,8.1182,0,0,1-1.6122,3.8143,6.7551,6.7551,0,0,1-3.346,2.1151l3.4326,8.7029h-5.5824L97.3108,33.093H93.7394l-1.4216,8.1135ZM98.663,22.4481H95.6118l-1.1444,6.5188h3.1208a6.4635,6.4635,0,0,0,3.3633-.6935,3.2028,3.2028,0,0,0,1.387-2.3232,1.9594,1.9594,0,0,0,.0693-.4508v-.2082Q102.4078,22.4484,98.663,22.4481Zm10.7835,18.7584,4.0223-22.8845h15.0829l-.7628,4.3688h-9.9511l-.8669,4.82h8.9456l-.728,4.23h-8.9459l-.9014,5.0973h10.2981l-.7628,4.3687Zm19.833,0,4.0223-22.8845h15.0829l-.7628,4.3688h-9.9511l-.8669,4.82H145.75l-.728,4.23h-8.9459l-.9014,5.0973h10.2981l-.7628,4.3687Zm19.66,0,4.0223-22.8845H159.48l4.6116,16.1926h.5547L167.49,18.322h4.82l-4.022,22.8845h-6.5188L157.157,25.014h-.5549L153.759,41.2065Z" fill="#007c39"/>
</svg>
