<?xml version="1.0" encoding="UTF-8"?>
<svg xmlns="http://www.w3.org/2000/svg" width="232" height="110" viewBox="0 0 1130 535">
    <g id="Bounding_Box">
        <rect width="1130" height="535" style="fill:none;"/>
    </g>
    <g id="logo">
        <rect width="1130" height="360" style="fill:#fc0;"/>
        <path d="M378.2,292.3696v-71.7391h27.3913c8.6956,0,15.5797,2.0652,20.6522,6.1957,5.0725,4.058,7.6087,9.6014,7.6087,16.6304v2.2826c0,7.029-2.5362,12.6087-7.6087,16.7391-5,4.058-11.8841,6.087-20.6522,6.087h-10.9783v23.8043h-16.413ZM405.5913,234h-10.9783v21.1957h10.9783c3.8406,0,6.7754-.8333,8.8043-2.5,2.029-1.7391,3.0435-4.1667,3.0435-7.2826v-1.6304c0-3.1884-1.0145-5.6159-3.0435-7.2826-2.029-1.6667-4.9638-2.5-8.8043-2.5ZM444.7563,292.3701v-71.7397h16.4132v57.6092h30.0002v14.1305h-46.4134ZM528.973,294c-9.4927,0-16.8478-2.6449-22.0652-7.9348-5.1449-5.3623-7.7174-13.5145-7.7174-24.4565v-40.9783h16.5217v40.2174c0,6.4493,1.087,11.1957,3.2609,14.2391,2.2464,2.971,5.6522,4.4565,10.2174,4.4565s7.9348-1.4855,10.1087-4.4565c2.2464-3.0435,3.3696-7.7899,3.3696-14.2391v-40.2174h15.9782v40.9783c0,10.942-2.5725,19.0942-7.7174,24.4565-5.0724,5.2899-12.3913,7.9348-21.9565,7.9348ZM595.7765,294c-5.3623,0-10.2899-.7609-14.7827-2.2826-4.4927-1.5942-8.5507-3.7319-12.1739-6.413l7.6088-11.6305c5.942,4.2754,12.4275,6.4131,19.4565,6.4131,3.6956,0,6.7029-.6159,9.0217-1.8478,2.3913-1.2319,3.587-3.1884,3.587-5.8696,0-3.8406-2.8623-6.4855-8.587-7.9348l-9.1304-2.3913c-6.1594-1.6667-10.8334-4.2029-14.0217-7.6087-3.116-3.4783-4.6739-7.971-4.6739-13.4783,0-6.8841,2.4638-12.2464,7.3913-16.087,5-3.913,11.8116-5.8696,20.4347-5.8696,4.7102,0,9.0942.6522,13.1522,1.9565,4.1304,1.3043,8.0072,3.2246,11.6304,5.7609l-7.3913,11.7391c-5.1449-3.6957-10.8333-5.5435-17.0652-5.5435-3.116,0-5.8334.5435-8.1522,1.6304-2.3188,1.0869-3.4783,3.0072-3.4783,5.7609,0,1.9565.6884,3.5145,2.0652,4.6739,1.4493,1.087,3.587,2.029,6.4131,2.8261l9.1305,2.3913c6.0145,1.5942,10.6522,4.1667,13.913,7.7174,3.3333,3.4783,5,8.0072,5,13.587,0,7.1739-2.6087,12.7174-7.8261,16.6304-5.1449,3.913-12.3188,5.8696-21.5217,5.8696Z"
              style="fill:#006443;"/>
        <path d="M422.7874,185.8705c-16.2014,0-28.8886-5.0034-38.0616-15.0102-9.0537-10.0068-13.5807-23.8852-13.5807-41.6355v-10.3642c0-11.7937,2.204-21.8603,6.6117-30.1992,4.4076-8.4583,10.6026-14.8912,18.5841-19.2989,8.1009-4.5269,17.4522-6.7903,28.0548-6.7903,8.5773,0,16.2611,1.4891,23.0514,4.4673,6.7904,2.8591,12.6872,7.088,17.6906,12.6872l-15.725,16.6185c-3.9313-3.9313-7.9233-6.6713-11.9725-8.2199-4.0491-1.5485-8.2807-2.323-12.6872-2.323-8.5773,0-15.1889,2.9188-19.835,8.756-4.527,5.7182-6.7904,14.1765-6.7904,25.3744v8.2199c0,11.198,2.0846,19.7753,6.2543,25.7318,4.2886,5.8372,10.4832,8.756,18.5841,8.756,7.3873,0,13.0446-2.442,16.9758-7.3264,4.0491-4.8844,6.0756-11.198,6.0756-18.9415h-23.5875v-21.8006h49.8554v20.7284c0,10.6026-2.0265,19.7159-6.0756,27.3401-4.0491,7.5051-9.7673,13.283-17.1546,17.3332-7.3873,3.9313-16.1432,5.8969-26.2679,5.8969ZM531.4633,185.3344c-13.5807,0-24.3023-3.9313-32.1648-11.7937-7.7408-7.8625-11.6151-18.6438-11.6151-32.3435v-7.1477c0-13.6997,3.8742-24.481,11.6151-32.3435,7.8625-7.8625,18.5841-11.7938,32.1648-11.7938s24.2452,3.9313,31.9861,11.7938c7.8625,7.8625,11.7938,18.6438,11.7938,32.3435v7.1477c0,13.6997-3.9312,24.481-11.7938,32.3435-7.7408,7.8625-18.4054,11.7937-31.9861,11.7937ZM531.4633,163.7125c5.6003,0,9.9497-1.9059,13.0446-5.7182,3.2165-3.8123,4.8247-9.5897,4.8247-17.3332v-6.0756c0-7.7435-1.6083-13.521-4.8247-17.3332-3.0949-3.8122-7.4443-5.7182-13.0446-5.7182-5.5965,0-10.0068,1.9059-13.2233,5.7182-3.0948,3.8123-4.646,9.5897-4.646,17.3332v6.0756c0,7.7435,1.5512,13.521,4.646,17.3332,3.2165,3.8123,7.6268,5.7182,13.2233,5.7182ZM642.8386,185.8705c-16.2003,0-28.8874-5.0034-38.0617-15.0102-9.0525-10.0068-13.5806-23.8852-13.5806-41.6355v-10.3642c0-11.7937,2.2052-21.8603,6.6116-30.1992,4.4065-8.4583,10.6037-14.8912,18.5841-19.2989,8.102-4.5269,17.4511-6.7903,28.0548-6.7903,8.5773,0,16.2611,1.4891,23.0514,4.4673,6.7903,2.8591,12.6872,7.088,17.6906,12.6872l-15.725,16.6185c-3.9312-3.9313-7.9233-6.6713-11.9725-8.2199-4.0491-1.5485-8.2807-2.323-12.6872-2.323-8.5773,0-15.1889,2.9188-19.8349,8.756-4.5281,5.7182-6.7903,14.1765-6.7903,25.3744v8.2199c0,11.198,2.0835,19.7753,6.2543,25.7318,4.2886,5.8372,10.482,8.756,18.5841,8.756,7.3872,0,13.0446-2.442,16.9758-7.3264,4.0491-4.8844,6.0755-11.198,6.0755-18.9415h-23.5875v-21.8006h49.8554v20.7284c0,10.6026-2.0264,19.7159-6.0755,27.3401-4.0491,7.5051-9.7673,13.283-17.1545,17.3332-7.3873,3.9313-16.1432,5.8969-26.2679,5.8969ZM712.202,183.1901v-91.1335h24.481v22.694c1.3117-4.0503,3.0378-7.8625,5.1821-11.4364,2.266-3.6929,5.125-6.6713,8.5773-8.9347,3.5739-2.3827,7.9842-3.5739,13.2233-3.5739,1.0722,0,2.0873.0597,3.0378.1787.9543,0,2.0264.119,3.2165.3574v23.9449c-.9505-.119-2.0226-.1787-3.2165-.1787-1.0722-.119-2.1444-.1787-3.2165-.1787-6.5508,0-11.9116,1.2509-16.0824,3.7526-4.167,2.5017-7.2656,5.1821-9.292,8.0412v56.467h-25.9105ZM824.14,185.3344c-13.6985,0-24.6596-3.8716-32.8795-11.6151-8.1021-7.7435-12.1511-18.5841-12.1511-32.5222v-7.1477c0-13.8191,3.7526-24.6,11.2577-32.3435,7.6229-7.8625,17.7514-11.7938,30.3778-11.7938,12.7481,0,22.5762,3.9313,29.4844,11.7938,7.0299,7.8625,10.5429,18.7628,10.5429,32.7009v11.079h-55.931c1.4296,12.7469,8.5165,19.1202,21.2645,19.1202,4.1708,0,7.9804-.5958,11.4363-1.7869,3.5739-1.1912,7.0869-2.9188,10.5429-5.1821l10.5429,16.2611c-4.5281,3.4549-9.7103,6.2543-15.5463,8.3986-5.7182,2.0253-12.0333,3.0378-18.9415,3.0378ZM820.2087,110.6407c-5.1213,0-8.9347,1.6679-11.4364,5.0034-2.5017,3.2165-3.9312,7.8028-4.2886,13.7594h31.45c-.3574-5.9566-1.7869-10.5429-4.2887-13.7594-2.3838-3.3355-6.1934-5.0034-11.4363-5.0034ZM921.3377,185.3344c-13.6985,0-24.6597-3.8716-32.8795-11.6151-8.0982-7.7435-12.1512-18.5841-12.1512-32.5222v-7.1477c0-13.8191,3.7526-24.6,11.2577-32.3435,7.6268-7.8625,17.7514-11.7938,30.3778-11.7938,12.748,0,22.5762,3.9313,29.4844,11.7938,7.0299,7.8625,10.5429,18.7628,10.5429,32.7009v11.079h-55.931c1.4296,12.7469,8.5202,19.1202,21.2645,19.1202,4.1708,0,7.9842-.5958,11.4363-1.7869,3.5739-1.1912,7.0907-2.9188,10.5429-5.1821l10.5429,16.2611c-4.5244,3.4549-9.7065,6.2543-15.5463,8.3986-5.7182,2.0253-12.0295,3.0378-18.9415,3.0378ZM917.4064,110.6407c-5.1213,0-8.9347,1.6679-11.4364,5.0034-2.5017,3.2165-3.9312,7.8028-4.2886,13.7594h31.45c-.3574-5.9566-1.7869-10.5429-4.2887-13.7594-2.3801-3.3355-6.1934-5.0034-11.4363-5.0034ZM976.2307,183.1901v-91.1335h24.481v15.9037c2.7374-5.2418,6.3113-9.4707,10.7216-12.6872,4.5244-3.3355,10.1247-5.0034,16.7972-5.0034,9.0525,0,16.0823,3.0975,21.0858,9.292,5.1213,6.0756,7.6838,14.5932,7.6838,25.5531v58.0753h-25.9105v-55.0375c0-4.8844-1.0721-8.756-3.2164-11.6151-2.1444-2.9781-5.5395-4.4673-10.1856-4.4673-3.5739,0-6.6725.8338-9.292,2.5017-2.5017,1.6679-4.589,3.7526-6.2543,6.2543v62.3639h-25.9105Z"
              style="fill:#006443;"/>
        <path d="M139.8956,80.2464c15.3512,8.7259,44.649,23.6139,72.1686,27.7003-5.2852,2.0651-10.5413,4.6404-15.6943,7.7882-28.894,4.3538-65.0525-7.7214-84.8506-15.7035,10.1866-5.422,19.5083-12.6246,28.3763-19.785ZM106.5971,171.9228c11.9318,7.5377,26.3756,13.8811,43.6049,17.5275,19.0102-8.696,38.5284-25.7901,53.0528-46.6949,8.5383-12.2884,13.904-24.0813,16.651-30.9328-7.1125,2.271-13.9988,5.3643-20.5244,9.3558,0,0-3.853,2.4594-5.3262,3.5124-4.4948,3.4125-18.4435,38.2488-87.458,47.232ZM298.8867,106.648c14.5005,4.2182,26.8502,11.2811,35.8734,17.2152l.0176-.0041c-2.6772-1.3217-41.1812-39.9773-57.7083-60.8644l-2.9339,3.4691c-5.3039-2.9813-11.0723-5.6633-16.8843-8.0498,16.4673,15.5184,35.3577,35.8695,41.6355,48.2339ZM268.4995,100.7685l-.0757.0694c7.36.6334,14.8036,1.9193,21.6803,3.5197-7.7201-13.9629-24.5322-30.6608-37.8298-43.4996-14.9512-14.4354-40.2021-16.858-40.2021-16.858l1.0637,8.3519c-5.8877-.2788-17.0385-.3729-23.9593.3432,2.8323.5711,5.6927,1.6161,9.1202,2.7111,20.2212,6.6485,46.6532,19.7061,70.2027,45.3623ZM271.1105,107.4675c-9.7129,30.132-34.1083,63.7925-49.4118,83.021,18.338-4.2431,37.5687-13.0906,52.7355-30.4209,8.0025-11.367,16.3192-27.0085,21.8978-47.6717-8.0261-2.2528-16.5162-3.9638-25.2216-4.9283ZM302.2838,114.1802c-5.79,21.3954-14.3023,37.5618-22.5673,49.3669,5.8643-3.298,10.7161-8.0581,10.7161-8.0581l4.08,6.3134c10.6125-10.9622,22.8759-25.5567,35.5866-35.2987-7.87-4.662-17.3424-8.9394-27.8155-12.3235ZM264.7764,106.8913c-12.4436-.8384-25.1673-.0569-37.4319,2.8768-1.9441,5.4758-7.8249,20.4616-18.9906,36.533-13.2322,19.0449-30.5297,35.0995-48.0429,44.9586.0052.0007.0102.0017.0155.0025,0,0,23.7434,5.3828,51.8627,1.0535,13.9743-17.0781,41.8902-53.6559,52.5873-85.4243ZM89.7824,125.6353c24.5988,11.0504,62.8045,20.6324,99.3942-3.6123-.8785.0216-8.8674-.1551-9.7506-.1551-29.9448,0-60.4927-11.5297-75.6384-18.169-11.5859,4.8159-24.3251,6.9661-38.7538,4.09,8.49,8.8662,20.4694,15.9241,24.7486,17.8464ZM227.6871,103.1755s22.0227-3.1662,31.7612-2.8763c-25.9345-26.0492-55.0685-37.2399-74.0089-42.023-8.4797,1.519-25.5334,5.7569-38.9651,16.634-.4693.3801-.9412.7637-1.4127,1.1464,18.5688,10.4259,54.2423,27.9856,82.6255,27.119ZM171.1642,142.795c4.814-3.6732,8.3399-7.2822,10.9252-10.4511-43.559,24.0852-91.9882,4.8257-125.0894-16.8525,1.3146,3.1427,13.1328,29.9051,41.8122,51.0833,38.4927-3.6872,60.4874-14.7263,72.352-23.7797Z"
              style="fill:#006443;"/>
        <path d="M10.9512,448.8451L0,400.0052h6.7334l9.0283,41.958h1.0361l9.4717-40.4785h9.4717l9.3984,40.4785h1.0361l9.0283-41.958h6.5117l-10.9521,48.8398h-9.8418l-9.5459-40.2559h-1.0361l-9.5459,40.2559h-9.8428Z"
              style="fill:#006443;"/>
        <path d="M72.4453,405.9251c-1.2334,0-2.2451-.3818-3.0342-1.1475-.79-.7637-1.1836-1.7129-1.1836-2.8486,0-1.1338.3936-2.0723,1.1836-2.8115.7891-.7402,1.8008-1.1104,3.0342-1.1104,1.2822,0,2.3057.3701,3.0713,1.1104.7637.7393,1.1465,1.6777,1.1465,2.8115,0,1.1357-.3828,2.085-1.1465,2.8486-.7656.7656-1.7891,1.1475-3.0713,1.1475ZM69.3369,448.8451v-37h6.29v37h-6.29Z"
              style="fill:#006443;"/>
        <path d="M87.3184,448.8451v-37h5.8467v8.6582c.5918-1.5781,1.417-3.0586,2.4785-4.4404,1.0605-1.3799,2.417-2.5156,4.0703-3.4033,1.6523-.8887,3.6377-1.332,5.957-1.332.8379,0,1.7021.0732,2.5898.2217v5.9941c-.3955-.0488-.8271-.0859-1.2949-.1113-.4697-.0244-.9248-.0371-1.3691-.0371-3.1084,0-5.6367.7402-7.585,2.2197-1.9492,1.4805-3.417,3.1582-4.4033,5.0322v24.1982h-6.29Z"
              style="fill:#006443;"/>
        <path d="M130.8301,448.8451v-37h5.8467v8.6582c.5918-1.5781,1.417-3.0586,2.4785-4.4404,1.0605-1.3799,2.417-2.5156,4.0703-3.4033,1.6523-.8887,3.6377-1.332,5.957-1.332.8379,0,1.7021.0732,2.5898.2217v5.9941c-.3955-.0488-.8271-.0859-1.2949-.1113-.4697-.0244-.9248-.0371-1.3691-.0371-3.1084,0-5.6367.7402-7.585,2.2197-1.9492,1.4805-3.417,3.1582-4.4033,5.0322v24.1982h-6.29Z"
              style="fill:#006443;"/>
        <path d="M173.6025,449.7328c-3.5527,0-6.5859-.7646-9.1025-2.2939-2.5156-1.5283-4.4395-3.6377-5.7715-6.3271-1.332-2.6875-1.998-5.8086-1.998-9.3604v-2.8125c0-3.5518.6406-6.6709,1.9238-9.3604,1.2822-2.6885,3.1084-4.7979,5.4756-6.3271,2.3682-1.5293,5.2051-2.2939,8.5107-2.2939,3.3535,0,6.1787.7646,8.4727,2.2939s4.0332,3.6387,5.2168,6.3271c1.1846,2.6895,1.7764,5.7842,1.7764,9.2861v3.5527h-25.2344c.1484,3.6514,1.1592,6.5244,3.0342,8.6211,1.874,2.0967,4.5625,3.1445,8.0664,3.1445,2.0215,0,3.8477-.3701,5.4756-1.1104,1.6279-.7393,3.1084-1.7256,4.4404-2.96l3.1816,4.292c-1.6777,1.6777-3.6387,2.9863-5.8828,3.9229-2.2461.9365-4.7734,1.4053-7.585,1.4053ZM172.4922,416.3587c-2.8613,0-5.1182.9873-6.7705,2.96-1.6543,1.9736-2.5791,4.7119-2.7754,8.2148h19.0918c-.1973-3.3545-1.1094-6.0557-2.7383-8.1035-1.6279-2.0469-3.8975-3.0713-6.8076-3.0713Z"
              style="fill:#006443;"/>
        <path d="M208.9736,449.5853c-2.8115,0-5.2793-.7402-7.3994-2.2207-2.1221-1.4795-3.7627-3.5518-4.9209-6.2158-1.1602-2.6641-1.7393-5.7959-1.7393-9.3975v-2.8125c0-3.6006.5791-6.7334,1.7393-9.3975,1.1582-2.6641,2.7988-4.7363,4.9209-6.2158,2.1201-1.4805,4.5879-2.2207,7.3994-2.2207,2.5166,0,4.7852.6045,6.8086,1.8135,2.0215,1.209,3.6738,2.9482,4.958,5.2168v-21.0898h6.29v51.7998h-5.8467v-7.1035c-1.2832,2.5156-2.9727,4.4521-5.0684,5.8086-2.0977,1.3564-4.4775,2.0352-7.1416,2.0352ZM201.2041,431.5287c0,3.8984.875,6.9453,2.627,9.1396,1.75,2.1953,4.1553,3.293,7.2148,3.293,2.0225,0,3.8848-.5557,5.5869-1.665,1.7021-1.1104,3.0713-2.6514,4.1074-4.625v-14.6523c-1.0361-1.9727-2.4053-3.5146-4.1074-4.625-1.7021-1.1094-3.5645-1.665-5.5869-1.665-3.0596,0-5.4648,1.0986-7.2148,3.293-1.752,2.1963-2.627,5.2432-2.627,9.1396v2.3672Z"
              style="fill:#006443;"/>
        <path d="M250.1914,449.5853c-3.6025,0-6.4883-1.209-8.6582-3.626-2.1719-2.417-3.2559-6.0186-3.2559-10.8047v-23.3096h6.29v22.4961c0,3.207.6895,5.6123,2.0713,7.2148,1.3809,1.6035,3.2803,2.4053,5.6982,2.4053,2.3682,0,4.3408-.6406,5.9199-1.9238,1.5781-1.2822,2.8125-2.7383,3.7002-4.3662v-25.8262h6.29v37h-5.8457v-7.1035c-1.1357,2.1709-2.6895,4.0205-4.6621,5.5498-1.9736,1.5293-4.4902,2.2939-7.5479,2.2939Z"
              style="fill:#006443;"/>
        <path d="M276.3867,448.8451v-5.1064l20.5723-26.3438h-19.6846v-5.5498h27.3799v5.1064l-20.5713,26.3438h21.0898v5.5498h-28.7861Z"
              style="fill:#006443;"/>
        <path d="M316.4199,405.9251c-1.2334,0-2.2451-.3818-3.0342-1.1475-.79-.7637-1.1836-1.7129-1.1836-2.8486,0-1.1338.3936-2.0723,1.1836-2.8115.7891-.7402,1.8008-1.1104,3.0342-1.1104,1.2822,0,2.3057.3701,3.0713,1.1104.7637.7393,1.1465,1.6777,1.1465,2.8115,0,1.1357-.3828,2.085-1.1465,2.8486-.7656.7656-1.7891,1.1475-3.0713,1.1475ZM313.3115,448.8451v-37h6.29v37h-6.29Z"
              style="fill:#006443;"/>
        <path d="M346.0195,449.7328c-3.5527,0-6.5859-.7646-9.1025-2.2939-2.5156-1.5283-4.4395-3.6377-5.7715-6.3271-1.332-2.6875-1.998-5.8086-1.998-9.3604v-2.8125c0-3.5518.6406-6.6709,1.9238-9.3604,1.2822-2.6885,3.1084-4.7979,5.4756-6.3271,2.3682-1.5293,5.2051-2.2939,8.5107-2.2939,3.3535,0,6.1787.7646,8.4727,2.2939s4.0332,3.6387,5.2168,6.3271c1.1846,2.6895,1.7764,5.7842,1.7764,9.2861v3.5527h-25.2344c.1484,3.6514,1.1592,6.5244,3.0342,8.6211,1.874,2.0967,4.5625,3.1445,8.0664,3.1445,2.0215,0,3.8477-.3701,5.4756-1.1104,1.6279-.7393,3.1084-1.7256,4.4404-2.96l3.1816,4.292c-1.6777,1.6777-3.6387,2.9863-5.8828,3.9229-2.2461.9365-4.7734,1.4053-7.585,1.4053ZM344.9092,416.3587c-2.8613,0-5.1182.9873-6.7705,2.96-1.6543,1.9736-2.5791,4.7119-2.7754,8.2148h19.0918c-.1973-3.3545-1.1094-6.0557-2.7383-8.1035-1.6279-2.0469-3.8975-3.0713-6.8076-3.0713Z"
              style="fill:#006443;"/>
        <path d="M369.4766,448.8451v-37h5.8467v8.6582c.5918-1.5781,1.417-3.0586,2.4785-4.4404,1.0605-1.3799,2.417-2.5156,4.0703-3.4033,1.6523-.8887,3.6377-1.332,5.957-1.332.8379,0,1.7021.0732,2.5898.2217v5.9941c-.3955-.0488-.8271-.0859-1.2949-.1113-.4697-.0244-.9248-.0371-1.3691-.0371-3.1084,0-5.6367.7402-7.585,2.2197-1.9492,1.4805-3.417,3.1582-4.4033,5.0322v24.1982h-6.29Z"
              style="fill:#006443;"/>
        <path d="M412.249,449.7328c-3.5527,0-6.5859-.7646-9.1025-2.2939-2.5156-1.5283-4.4395-3.6377-5.7715-6.3271-1.332-2.6875-1.998-5.8086-1.998-9.3604v-2.8125c0-3.5518.6406-6.6709,1.9238-9.3604,1.2822-2.6885,3.1084-4.7979,5.4756-6.3271,2.3682-1.5293,5.2051-2.2939,8.5107-2.2939,3.3535,0,6.1787.7646,8.4727,2.2939s4.0332,3.6387,5.2168,6.3271c1.1846,2.6895,1.7764,5.7842,1.7764,9.2861v3.5527h-25.2344c.1484,3.6514,1.1592,6.5244,3.0342,8.6211,1.874,2.0967,4.5625,3.1445,8.0664,3.1445,2.0215,0,3.8477-.3701,5.4756-1.1104,1.6279-.7393,3.1084-1.7256,4.4404-2.96l3.1816,4.292c-1.6777,1.6777-3.6387,2.9863-5.8828,3.9229-2.2461.9365-4.7734,1.4053-7.585,1.4053ZM411.1387,416.3587c-2.8613,0-5.1182.9873-6.7705,2.96-1.6543,1.9736-2.5791,4.7119-2.7754,8.2148h19.0918c-.1973-3.3545-1.1094-6.0557-2.7383-8.1035-1.6279-2.0469-3.8975-3.0713-6.8076-3.0713Z"
              style="fill:#006443;"/>
        <path d="M435.7061,448.8451v-37h5.8467v7.1035c1.1338-2.1699,2.6875-4.0195,4.6611-5.5498,1.9727-1.5283,4.4893-2.2939,7.5488-2.2939,3.6992,0,6.6465,1.21,8.8428,3.626,2.1943,2.418,3.293,6.0195,3.293,10.8047v23.3096h-6.29v-22.4961c0-3.2061-.6914-5.6113-2.0723-7.2148-1.3818-1.6025-3.3301-2.4053-5.8457-2.4053-2.3682,0-4.3545.6416-5.957,1.9238-1.6035,1.2842-2.8486,2.7383-3.7373,4.3662v25.8262h-6.29Z"
              style="fill:#006443;"/>
        <path d="M512,449.9554c-4.292,0-7.9922-.9512-11.1006-2.8496-3.1074-1.8984-5.5127-4.5996-7.2148-8.1025s-2.5527-7.6709-2.5527-12.5059v-4.1445c0-4.834.8506-9.002,2.5527-12.5059,1.7021-3.502,4.1074-6.2031,7.2148-8.1025,3.1084-1.8994,6.8086-2.8496,11.1006-2.8496,6.9561,0,12.4316,2.5166,16.4277,7.5479l-4.0703,4.3662c-3.3555-3.9463-7.4736-5.9199-12.3574-5.9199-4.4404,0-7.918,1.5664-10.4346,4.6992-2.5156,3.1328-3.7734,7.4863-3.7734,13.0605v3.5527c0,5.5254,1.2578,9.8672,3.7734,13.0234,2.5166,3.1582,5.9941,4.7363,10.4346,4.7363,2.416,0,4.7227-.4932,6.9189-1.4805,2.1943-.9863,4.1309-2.4658,5.8086-4.4395l4.0703,4.3652c-1.9736,2.4678-4.4033,4.3418-7.2891,5.624-2.8857,1.2832-6.0566,1.9248-9.5088,1.9248Z"
              style="fill:#006443;"/>
        <path d="M555.4375,449.9554c-4.3916,0-8.1406-.9746-11.248-2.9238-3.1084-1.9482-5.4893-4.6855-7.1416-8.2139-1.6533-3.5264-2.4785-7.6328-2.4785-12.3203v-4.1445c0-4.7354.8252-8.8545,2.4785-12.3574,1.6523-3.5029,4.0332-6.2275,7.1416-8.1777,3.1074-1.9482,6.8564-2.9229,11.248-2.9229s8.1396.9746,11.248,2.9229c3.1074,1.9502,5.4873,4.6748,7.1406,8.1777,1.6523,3.5029,2.4785,7.6221,2.4785,12.3574v4.1445c0,4.6875-.8262,8.7939-2.4785,12.3203-1.6533,3.5283-4.0332,6.2656-7.1406,8.2139-3.1084,1.9492-6.8584,2.9238-11.248,2.9238ZM555.4375,444.0355c4.4883,0,7.9912-1.5791,10.5078-4.7363,2.5156-3.1562,3.7734-7.5225,3.7734-13.0977v-3.5527c0-5.5742-1.2578-9.9404-3.7734-13.0977-2.5166-3.1562-6.0195-4.7363-10.5078-4.7363s-7.9922,1.5801-10.5088,4.7363c-2.5156,3.1572-3.7734,7.5234-3.7734,13.0977v3.5527c0,5.5752,1.2578,9.9414,3.7734,13.0977,2.5166,3.1572,6.0186,4.7363,10.5088,4.7363Z"
              style="fill:#006443;"/>
        <path d="M582.6689,456.2454v-4.1445l8.7324-8.4355c.8877-.8389,1.5166-1.6025,1.8867-2.2939.3701-.6904.5547-1.4307.5547-2.2207,0-.9863-.3213-1.7627-.9619-2.3311-.6416-.5664-1.4561-.8506-2.4424-.8506-1.0352,0-1.9365.2217-2.7002.666-.7656.4443-1.5176,1.1357-2.2578,2.0723l-3.0332-2.8125c.9863-1.2822,2.1328-2.3057,3.4404-3.0713,1.3066-.7637,2.9229-1.1465,4.8477-1.1465,2.4658,0,4.4639.6289,5.9932,1.8867s2.2939,2.9971,2.2939,5.2168c0,1.4805-.3691,2.8496-1.1094,4.1074s-1.9004,2.627-3.4785,4.1074l-5.2539,4.958h10.3604v4.292h-16.8721Z"
              style="fill:#006443;"/>
        <path d="M605.3857,428.7171v-5.9941h22.6436v5.9941h-22.6436Z" style="fill:#006443;"/>
        <path d="M637.2793,448.8451v-48.8398h30.4141v5.9199h-23.8281v15.1699h21.6084v5.6982h-21.6084v16.1318h24.5684v5.9199h-31.1543Z"
              style="fill:#006443;"/>
        <path d="M678.2744,448.8451v-37h5.8467v7.1035c1.084-2.2197,2.6143-4.0811,4.5879-5.5869,1.9727-1.5039,4.4639-2.2568,7.4736-2.2568,2.6641,0,4.9453.6787,6.8447,2.0352,1.8994,1.3574,3.2432,3.3672,4.0332,6.0312,1.1348-2.2197,2.6885-4.1191,4.6621-5.6982,1.9727-1.5781,4.5381-2.3682,7.6963-2.3682,3.6504,0,6.5488,1.21,8.6943,3.626,2.1465,2.418,3.2197,6.0195,3.2197,10.8047v23.3096h-6.29v-22.4961c0-3.2061-.6543-5.6113-1.9609-7.2148-1.3076-1.6025-3.1953-2.4053-5.6611-2.4053-2.3193,0-4.2676.6416-5.8457,1.9238-1.5801,1.2842-2.7881,2.7383-3.627,4.3662v25.8262h-6.2891v-22.4961c0-3.2061-.6553-5.6113-1.9619-7.2148-1.3076-1.6025-3.1943-2.4053-5.6602-2.4053-2.3203,0-4.2686.6416-5.8467,1.9238-1.5791,1.2842-2.7871,2.7383-3.626,4.3662v25.8262h-6.29Z"
              style="fill:#006443;"/>
        <path d="M745.6875,405.9251c-1.2334,0-2.2451-.3818-3.0342-1.1475-.79-.7637-1.1836-1.7129-1.1836-2.8486,0-1.1338.3936-2.0723,1.1836-2.8115.7891-.7402,1.8008-1.1104,3.0342-1.1104,1.2822,0,2.3057.3701,3.0713,1.1104.7637.7393,1.1465,1.6777,1.1465,2.8115,0,1.1357-.3828,2.085-1.1465,2.8486-.7656.7656-1.7891,1.1475-3.0713,1.1475ZM742.5791,448.8451v-37h6.29v37h-6.29Z"
              style="fill:#006443;"/>
        <path d="M770.5508,449.7328c-5.4277,0-9.9658-1.7256-13.6162-5.1797l2.8867-4.2178c3.0078,2.7139,6.5605,4.0693,10.6553,4.0693,2.5645,0,4.5752-.5049,6.0312-1.5166,1.4551-1.0107,2.1826-2.3799,2.1826-4.1074,0-2.8115-1.6533-4.6123-4.958-5.4014l-5.4756-1.2578c-3.1572-.7402-5.5869-2.0225-7.2891-3.8486-1.7021-1.8242-2.5527-4.0938-2.5527-6.8076,0-3.1084,1.2451-5.6357,3.7363-7.585,2.4912-1.9482,5.7354-2.9229,9.7314-2.9229,4.8838,0,9.25,1.5537,13.0977,4.6621l-2.7373,4.3652c-3.208-2.4658-6.5381-3.6992-9.9902-3.6992-2.2695,0-4.0957.4688-5.4766,1.4053-1.3809.9385-2.0713,2.1963-2.0713,3.7744,0,2.5156,1.7754,4.1934,5.3281,5.0322l5.4756,1.2578c6.4131,1.5293,9.6201,5.2051,9.6201,11.0254,0,3.3066-1.3203,5.957-3.959,7.9551-2.6396,1.998-6.1787,2.9971-10.6191,2.9971Z"
              style="fill:#006443;"/>
        <path d="M804.2197,449.7328c-5.4277,0-9.9658-1.7256-13.6162-5.1797l2.8867-4.2178c3.0078,2.7139,6.5605,4.0693,10.6553,4.0693,2.5645,0,4.5752-.5049,6.0312-1.5166,1.4551-1.0107,2.1826-2.3799,2.1826-4.1074,0-2.8115-1.6533-4.6123-4.958-5.4014l-5.4756-1.2578c-3.1572-.7402-5.5869-2.0225-7.2891-3.8486-1.7021-1.8242-2.5527-4.0938-2.5527-6.8076,0-3.1084,1.2451-5.6357,3.7363-7.585,2.4912-1.9482,5.7354-2.9229,9.7314-2.9229,4.8838,0,9.25,1.5537,13.0977,4.6621l-2.7373,4.3652c-3.208-2.4658-6.5381-3.6992-9.9902-3.6992-2.2695,0-4.0957.4688-5.4766,1.4053-1.3809.9385-2.0713,2.1963-2.0713,3.7744,0,2.5156,1.7754,4.1934,5.3281,5.0322l5.4756,1.2578c6.4131,1.5293,9.6201,5.2051,9.6201,11.0254,0,3.3066-1.3203,5.957-3.959,7.9551-2.6396,1.998-6.1787,2.9971-10.6191,2.9971Z"
              style="fill:#006443;"/>
        <path d="M831.0068,405.9251c-1.2334,0-2.2451-.3818-3.0342-1.1475-.79-.7637-1.1836-1.7129-1.1836-2.8486,0-1.1338.3936-2.0723,1.1836-2.8115.7891-.7402,1.8008-1.1104,3.0342-1.1104,1.2822,0,2.3057.3701,3.0713,1.1104.7637.7393,1.1465,1.6777,1.1465,2.8115,0,1.1357-.3828,2.085-1.1465,2.8486-.7656.7656-1.7891,1.1475-3.0713,1.1475ZM827.8984,448.8451v-37h6.29v37h-6.29Z"
              style="fill:#006443;"/>
        <path d="M860.2363,449.7328c-3.4541,0-6.4141-.752-8.8799-2.2568-2.4678-1.5039-4.3545-3.6133-5.6611-6.3271-1.3076-2.7119-1.9609-5.8457-1.9609-9.3975v-2.8125c0-3.6006.6533-6.7451,1.9609-9.4346,1.3066-2.6885,3.1934-4.7852,5.6611-6.29,2.4658-1.5049,5.4258-2.2568,8.8799-2.2568,3.4521,0,6.4121.752,8.8799,2.2568,2.4658,1.5049,4.3535,3.6016,5.6611,6.29,1.3066,2.6895,1.9609,5.834,1.9609,9.4346v2.8125c0,3.5518-.6543,6.6855-1.9609,9.3975-1.3076,2.7139-3.1953,4.8232-5.6611,6.3271-2.4678,1.5049-5.4277,2.2568-8.8799,2.2568ZM860.2363,444.1087c3.1562,0,5.6484-1.0967,7.4736-3.293,1.8252-2.1943,2.7383-5.291,2.7383-9.2871v-2.3672c0-3.9961-.9131-7.0918-2.7383-9.2871s-4.3174-3.293-7.4736-3.293c-3.1582,0-5.6494,1.0977-7.4746,3.293s-2.7373,5.291-2.7373,9.2871v2.3672c0,3.9961.9121,7.0928,2.7373,9.2871,1.8252,2.1963,4.3164,3.293,7.4746,3.293Z"
              style="fill:#006443;"/>
        <path d="M886.2832,448.8451v-37h5.8467v7.1035c1.1338-2.1699,2.6875-4.0195,4.6611-5.5498,1.9727-1.5283,4.4893-2.2939,7.5488-2.2939,3.6992,0,6.6465,1.21,8.8428,3.626,2.1943,2.418,3.293,6.0195,3.293,10.8047v23.3096h-6.29v-22.4961c0-3.2061-.6914-5.6113-2.0723-7.2148-1.3818-1.6025-3.3301-2.4053-5.8457-2.4053-2.3682,0-4.3545.6416-5.957,1.9238-1.6035,1.2842-2.8486,2.7383-3.7373,4.3662v25.8262h-6.29Z"
              style="fill:#006443;"/>
        <path d="M942.4492,449.7328c-3.5527,0-6.5859-.7646-9.1025-2.2939-2.5156-1.5283-4.4395-3.6377-5.7715-6.3271-1.332-2.6875-1.998-5.8086-1.998-9.3604v-2.8125c0-3.5518.6406-6.6709,1.9238-9.3604,1.2822-2.6885,3.1084-4.7979,5.4756-6.3271,2.3682-1.5293,5.2051-2.2939,8.5107-2.2939,3.3535,0,6.1787.7646,8.4727,2.2939s4.0332,3.6387,5.2168,6.3271c1.1846,2.6895,1.7764,5.7842,1.7764,9.2861v3.5527h-25.2344c.1484,3.6514,1.1592,6.5244,3.0342,8.6211,1.874,2.0967,4.5625,3.1445,8.0664,3.1445,2.0215,0,3.8477-.3701,5.4756-1.1104,1.6279-.7393,3.1084-1.7256,4.4404-2.96l3.1816,4.292c-1.6777,1.6777-3.6387,2.9863-5.8828,3.9229-2.2461.9365-4.7734,1.4053-7.585,1.4053ZM941.3389,416.3587c-2.8613,0-5.1182.9873-6.7705,2.96-1.6543,1.9736-2.5791,4.7119-2.7754,8.2148h19.0918c-.1973-3.3545-1.1094-6.0557-2.7383-8.1035-1.6279-2.0469-3.8975-3.0713-6.8076-3.0713Z"
              style="fill:#006443;"/>
        <path d="M965.9062,448.8451v-37h5.8467v7.1035c1.1338-2.1699,2.6875-4.0195,4.6611-5.5498,1.9727-1.5283,4.4893-2.2939,7.5488-2.2939,3.6992,0,6.6465,1.21,8.8428,3.626,2.1943,2.418,3.293,6.0195,3.293,10.8047v23.3096h-6.29v-22.4961c0-3.2061-.6914-5.6113-2.0723-7.2148-1.3818-1.6025-3.3301-2.4053-5.8457-2.4053-2.3682,0-4.3545.6416-5.957,1.9238-1.6035,1.2842-2.8486,2.7383-3.7373,4.3662v25.8262h-6.29Z"
              style="fill:#006443;"/>
        <path d="M4.0693,533.512v-37h5.8467v7.1035c1.084-2.2197,2.6143-4.0811,4.5879-5.5869,1.9727-1.5039,4.4639-2.2568,7.4736-2.2568,2.6641,0,4.9453.6787,6.8447,2.0352,1.8994,1.3574,3.2432,3.3672,4.0332,6.0312,1.1348-2.2197,2.6885-4.1191,4.6621-5.6982,1.9727-1.5781,4.5381-2.3682,7.6963-2.3682,3.6504,0,6.5488,1.21,8.6943,3.626,2.1465,2.418,3.2197,6.0195,3.2197,10.8047v23.3096h-6.29v-22.4961c0-3.2061-.6543-5.6113-1.9609-7.2148-1.3076-1.6025-3.1953-2.4053-5.6611-2.4053-2.3193,0-4.2676.6416-5.8457,1.9238-1.5801,1.2842-2.7881,2.7383-3.627,4.3662v25.8262h-6.2891v-22.4961c0-3.2061-.6553-5.6113-1.9619-7.2148-1.3076-1.6025-3.1943-2.4053-5.6602-2.4053-2.3203,0-4.2686.6416-5.8467,1.9238-1.5791,1.2842-2.7871,2.7383-3.626,4.3662v25.8262h-6.29Z"
              style="fill:#006443;"/>
        <path d="M71.4824,490.5921c-1.2334,0-2.2451-.3818-3.0342-1.1475-.79-.7637-1.1836-1.7129-1.1836-2.8486,0-1.1338.3936-2.0723,1.1836-2.8115.7891-.7402,1.8008-1.1104,3.0342-1.1104,1.2822,0,2.3057.3701,3.0713,1.1104.7637.7393,1.1465,1.6777,1.1465,2.8115,0,1.1357-.3828,2.085-1.1465,2.8486-.7656.7656-1.7891,1.1475-3.0713,1.1475ZM68.374,533.512v-37h6.29v37h-6.29Z"
              style="fill:#006443;"/>
        <path d="M99.3799,534.2523c-4.1445,0-7.0557-1.0234-8.7324-3.0713-1.6777-2.0469-2.5156-5.3896-2.5156-10.0273v-19.3135h-6.3643v-5.3281h6.3643v-8.2139l6.29-1.4805v9.6943h9.4717v5.3281h-9.4717v19.0918c0,3.1084.5049,5.1924,1.5166,6.2529,1.0107,1.0615,2.6514,1.5908,4.9209,1.5908.4443,0,.9258-.0244,1.4434-.0732s1.0479-.123,1.5908-.2227v5.4023c-.6416.0986-1.3447.1846-2.1084.2588-.7656.0742-1.5674.1113-2.4053.1113Z"
              style="fill:#006443;"/>
        <path d="M127.7949,533.512v-48.8398h16.5762c7.0537,0,12.5176,1.9609,16.3906,5.8828,3.8721,3.9219,5.8096,9.4609,5.8096,16.6133v3.8477c0,7.1543-1.9375,12.6914-5.8096,16.6133-3.873,3.9219-9.3369,5.8828-16.3906,5.8828h-16.5762ZM144.3711,490.5921h-9.9902v37h9.9902c5.0801,0,8.9541-1.4307,11.6182-4.292,2.6641-2.8604,3.9961-7.0547,3.9961-12.5801v-3.2559c0-5.5244-1.332-9.7188-3.9961-12.5801-2.6641-2.8604-6.5381-4.292-11.6182-4.292Z"
              style="fill:#006443;"/>
        <path d="M177.5225,533.512v-48.8398h6.5859v21.1641h25.3818v-21.1641h6.5859v48.8398h-6.5859v-21.7559h-25.3818v21.7559h-6.5859Z"
              style="fill:#006443;"/>
        <path d="M229.248,533.512v-48.8398h6.5859v42.9199h23.3838v5.9199h-29.9697Z" style="fill:#006443;"/>
    </g>
</svg>